#!OML:ASF E:\Steps\Project 1\Capture day 1\Session 2\Subject.ASF
:FULLY-SPECIFIED
:DEGREES
106
root -1.21754 17.9635 20.958 -155.797 -0.690765 178.141
lowerback -28.1846 -2.27107 -6.84533
upperback -0.953089 -1.34382 -0.0263501
thorax 14.0207 -1.27893 3.13655
lowerneck -3.6721 -5.80125 0.17067
upperneck 16.8125 -7.55015 2.62529
head 5.77663 -3.15059 0.369077
rclavicle 4.96962e-016 3.97569e-015
rhumerus -39.37 -17.6759 -77.894
rradius 30.6834
rwrist -2.08478
rhand -7.24926 -57.3994
rfingers 7.12502
rthumb 18.6311 -86.5272
lclavicle 4.96962e-016 3.97569e-015
lhumerus -28.751 1.90459 83.31
lradius 20.4834
lwrist -5.04396
lhand -21.6802 -12.5688
lfingers 7.12502
lthumb 4.71757 17.3586
rfemur -22.5626 6.05341 19.4053
rtibia 6.89835
rfoot -15.6893 -4.17836
rtoes -31.7695
lfemur -22.4476 -6.44123 -23.2998
ltibia 6.73314
lfoot -5.89837 -5.33001
ltoes -33.9166
107
root -1.21895 17.9632 20.957 -155.764 -0.611186 178.132
lowerback -28.2717 -2.25535 -6.85667
upperback -0.944267 -1.31412 -0.0277927
thorax 14.0683 -1.26855 3.15014
lowerneck -3.64888 -5.73619 0.0539152
upperneck 16.6577 -7.47134 2.70948
head 5.73074 -3.12281 0.42083
rclavicle 5.91384e-015 -1.31198e-014
rhumerus -39.2773 -17.6924 -77.8853
rradius 30.7112
rwrist -1.96986
rhand -7.08538 -58.1037
rfingers 7.12502
rthumb 18.7887 -87.2163
lclavicle 5.91384e-015 -1.31198e-014
lhumerus -28.741 1.92891 83.3548
lradius 20.5673
lwrist -4.96933
lhand -21.7913 -12.6153
lfingers 7.12502
lthumb 4.61033 17.3145
rfemur -22.6551 6.18528 19.3479
rtibia 6.98963
rfoot -15.7434 -4.24113
rtoes -31.6354
lfemur -22.4661 -6.43892 -23.33
ltibia 6.72731
lfoot -5.89119 -5.28366
ltoes -34.04
108
root -1.21956 17.962 20.9594 -155.66 -0.550073 178.11
lowerback -28.3696 -2.25038 -6.90327
upperback -0.970575 -1.29415 -0.0237797
thorax 14.0813 -1.26559 3.18449
lowerneck -3.61277 -5.66015 -0.112476
upperneck 16.4016 -7.3903 2.88075
head 5.65604 -3.09617 0.508843
rclavicle 2.28602e-015 -9.14409e-015
rhumerus -39.2273 -17.743 -77.8496
rradius 30.7378
rwrist -1.88097
rhand -6.93091 -58.6503
rfingers 7.12502
rthumb 18.9373 -87.7484
lclavicle 2.28602e-015 -9.14409e-015
lhumerus -28.745 1.87047 83.4298
lradius 20.6342
lwrist -4.81528
lhand -21.8397 -12.607
lfingers 7.12502
lthumb 4.56358 17.3239
rfemur -22.8471 6.11703 19.319
rtibia 7.07887
rfoot -15.7189 -4.1542
rtoes -31.7931
lfemur -22.5975 -6.41694 -23.366
ltibia 6.74004
lfoot -5.87832 -5.27439
ltoes -34.2642
109
root -1.22031 17.9627 20.9583 -155.712 -0.571371 178.085
lowerback -28.337 -2.25941 -6.95929
upperback -0.95877 -1.2873 -0.0230193
thorax 14.0797 -1.26526 3.21923
lowerneck -3.59431 -5.65454 -0.13698
upperneck 16.2293 -7.3942 2.9142
head 5.60132 -3.1073 0.524837
rclavicle 5.71506e-015 2.74323e-014
rhumerus -39.1997 -17.7897 -77.8237
rradius 30.7831
rwrist -1.9105
rhand -6.83447 -58.5342
rfingers 7.12502
rthumb 19.03 -87.6232
lclavicle 5.71506e-015 2.74323e-014
lhumerus -28.749 1.73413 83.4942
lradius 20.666
lwrist -4.69966
lhand -21.7426 -12.7693
lfingers 7.12502
lthumb 4.65728 17.1595
rfemur -22.7593 6.04311 19.3245
rtibia 7.02183
rfoot -15.6552 -4.1823
rtoes -32.5433
lfemur -22.5399 -6.39836 -23.4047
ltibia 6.73566
lfoot -5.87196 -5.31124
ltoes -34.2268
110
root -1.2209 17.9634 20.9556 -155.754 -0.623138 178.06
lowerback -28.3364 -2.26142 -7.01328
upperback -0.941407 -1.26754 -0.0365079
thorax 14.0973 -1.25941 3.24147
lowerneck -3.62074 -5.69638 -0.0620417
upperneck 16.2563 -7.45214 2.87613
head 5.61097 -3.13199 0.496485
rclavicle -1.39149e-015 -8.34896e-015
rhumerus -39.2011 -17.819 -77.8361
rradius 30.9023
rwrist -2.01095
rhand -6.91725 -58.3624
rfingers 7.12502
rthumb 18.9504 -87.4593
lclavicle -1.39149e-015 -8.34896e-015
lhumerus -28.7382 1.59251 83.5425
lradius 20.6764
lwrist -4.66435
lhand -21.5251 -13.091
lfingers 7.12502
lthumb 4.86735 16.8331
rfemur -22.6556 6.01579 19.3071
rtibia 6.95938
rfoot -15.6603 -4.23322
rtoes -32.6374
lfemur -22.485 -6.37884 -23.4375
ltibia 6.75371
lfoot -5.90334 -5.37642
ltoes -34.1054
111
root -1.22 17.9632 20.9557 -155.728 -0.61152 178.111
lowerback -28.3805 -2.23938 -6.99537
upperback -0.931188 -1.24101 -0.0288
thorax 14.127 -1.24746 3.24938
lowerneck -3.68726 -5.7034 0.0224074
upperneck 16.2455 -7.46432 2.80261
head 5.6131 -3.13954 0.457451
rclavicle 1.99282e-014 6.36111e-015
rhumerus -39.1255 -17.8594 -77.8634
rradius 30.9775
rwrist -2.04996
rhand -6.99015 -58.1275
rfingers 7.12502
rthumb 18.8803 -87.2312
lclavicle 1.99282e-014 6.36111e-015
lhumerus -28.672 1.61563 83.5343
lradius 20.6406
lwrist -4.75981
lhand -21.4097 -13.259
lfingers 7.12502
lthumb 4.97875 16.6625
rfemur -22.7008 6.0725 19.3484
rtibia 6.98202
rfoot -15.7467 -4.21843
rtoes -32.4407
lfemur -22.5168 -6.34196 -23.3675
ltibia 6.74729
lfoot -5.9094 -5.39913
ltoes -33.8397
112
root -1.22013 17.9629 20.9571 -155.713 -0.574626 178.205
lowerback -28.3973 -2.22817 -6.9115
upperback -0.928791 -1.25618 0.00823661
thorax 14.1401 -1.24991 3.23823
lowerneck -3.71688 -5.67655 -0.00919034
upperneck 16.1361 -7.43198 2.78112
head 5.5838 -3.13496 0.457765
rclavicle 7.85199e-015 -3.97569e-016
rhumerus -39.0016 -17.8114 -77.8944
rradius 30.9877
rwrist -2.05634
rhand -7.01558 -57.6326
rfingers 7.12502
rthumb 18.8558 -86.7387
lclavicle 7.85199e-015 -3.97569e-016
lhumerus -28.6181 1.80789 83.4715
lradius 20.5907
lwrist -4.8893
lhand -21.3302 -13.2266
lfingers 7.12502
lthumb 5.05556 16.6931
rfemur -22.77 5.98869 19.4783
rtibia 7.03816
rfoot -15.7514 -4.07186
rtoes -32.8263
lfemur -22.5535 -6.28412 -23.2597
ltibia 6.75132
lfoot -5.94322 -5.3612
ltoes -34.0464
113
root -1.22238 17.9658 20.9569 -155.785 -0.610933 178.236
lowerback -28.3027 -2.23251 -6.84716
upperback -0.945133 -1.29009 0.0115418
thorax 14.0806 -1.25858 3.19642
lowerneck -3.62942 -5.6263 -0.0970773
upperneck 16.0705 -7.36608 2.87602
head 5.55427 -3.10397 0.50853
rclavicle -4.27387e-015 3.57812e-015
rhumerus -39.0061 -17.6675 -77.9566
rradius 31.0537
rwrist -2.187
rhand -7.1992 -57.4936
rfingers 7.12502
rthumb 18.6792 -86.6167
lclavicle -4.27387e-015 3.57812e-015
lhumerus -28.6694 1.91768 83.409
lradius 20.5754
lwrist -4.95592
lhand -21.2636 -13.2175
lfingers 7.12502
lthumb 5.11987 16.7006
rfemur -22.7013 5.91072 19.5469
rtibia 7.06625
rfoot -15.7157 -4.04566
rtoes -33.1696
lfemur -22.4743 -6.2798 -23.2321
ltibia 6.73228
lfoot -5.92521 -5.36735
ltoes -34.3708
114
root -1.22464 17.9658 20.9574 -155.747 -0.669055 178.196
lowerback -28.3083 -2.22353 -6.84176
upperback -0.978757 -1.28076 -0.0346735
thorax 14.0413 -1.25338 3.14627
lowerneck -3.57904 -5.59969 -0.136205
upperneck 16.0223 -7.34142 3.00293
head 5.53656 -3.08643 0.557611
rclavicle -8.59744e-015 3.97569e-016
rhumerus -39.0353 -17.6858 -77.9966
rradius 31.0842
rwrist -2.29994
rhand -7.3916 -57.5617
rfingers 7.12502
rthumb 18.4942 -86.7026
lclavicle -8.59744e-015 3.97569e-016
lhumerus -28.7006 1.80379 83.4051
lradius 20.6018
lwrist -4.89841
lhand -21.2824 -13.2284
lfingers 7.12502
lthumb 5.10164 16.6902
rfemur -22.7443 5.91256 19.4923
rtibia 7.08906
rfoot -15.7314 -4.16374
rtoes -33.4761
lfemur -22.5294 -6.29041 -23.2784
ltibia 6.75514
lfoot -5.87557 -5.44756
ltoes -34.3218
